<svg xmlns="http://www.w3.org/2000/svg" width="16" height="16" viewBox="0 0 16 16">
  <path id="Combined_Shape" data-name="Combined Shape" d="M7.99,16v-.031c-2.146,0-4.292.034-6.436-.012C.14,15.924-.309,15.161.207,13.83a3.309,3.309,0,0,1,1.452-1.7c.688-.4,1.437-.684,2.156-1.025a.4.4,0,0,1,.536.141,5.679,5.679,0,0,0,2.076,1.57,4.031,4.031,0,0,0,4.148-.559,8.709,8.709,0,0,0,1.083-.988.475.475,0,0,1,.571-.169,7.087,7.087,0,0,1,2.714,1.468A2.93,2.93,0,0,1,16,14.754a.964.964,0,0,1-.832,1.094,6.96,6.96,0,0,1-1.407.143Q12.436,16,11.11,16Zm-2-5.66a9.495,9.495,0,0,1-2.537-5.9A4.427,4.427,0,0,1,7.217.076a4.574,4.574,0,0,1,5.266,3.38,5.218,5.218,0,0,1-.122,2.56,9.138,9.138,0,0,1-2.31,4.31,2.9,2.9,0,0,1-2.027.977A2.96,2.96,0,0,1,5.988,10.337Z" transform="translate(0 0)" fill="#7c90db"/>
</svg>
