<svg xmlns="http://www.w3.org/2000/svg" xmlns:xlink="http://www.w3.org/1999/xlink" width="31.91" height="30" viewBox="0 0 31.91 30"><defs><style>.a{fill:#fff;}.b{clip-path:url(#a);}</style><clipPath id="a"><rect class="a" width="31.91" height="30"/></clipPath></defs><g class="b"><path class="a" d="M121.774.952q-.755-.3-1.518-.58c-.353-.13-.711-.249-1.066-.372h-.717L118.3.069a1.5,1.5,0,0,0-.962,1.068,5.762,5.762,0,0,1-1.867,2.93c-.3.266-.3.465.014.711a2.679,2.679,0,0,0,1.941.586,2.373,2.373,0,0,0,1.905-1.41c.139-.263.179-.609.377-.8a3.269,3.269,0,0,1,.828-.391,4.514,4.514,0,0,0,1.424-1.044c.28-.326.208-.608-.186-.764" transform="translate(-103.565)"/><path class="a" d="M80.852,245.053c-.208-.16-.413-.325-.626-.479-.242-.175-.49-.341-.758-.526.064-.1.114-.2.173-.284.658-.954,1.314-1.91,1.977-2.86a1.849,1.849,0,0,0,.383-1.6l.49.338c.158.109.316.217.473.327a1.228,1.228,0,0,1,.323,1.8c-.65.949-1.308,1.893-1.96,2.841-.1.143-.183.295-.274.442Z" transform="translate(-71.415 -215.053)"/><path class="a" d="M197.528,245.092c-.058-.1-.109-.2-.174-.3q-1.013-1.473-2.03-2.943a1.238,1.238,0,0,1,.349-1.88c.278-.194.559-.384.9-.62a2.268,2.268,0,0,0,.641,1.964q.878,1.262,1.751,2.528c.047.068.086.141.146.24-.4.276-.785.544-1.171.817a2.348,2.348,0,0,0-.214.193Z" transform="translate(-175.269 -215.092)"/><path class="a" d="M63.612,13.928c.337-.039.676-.067,1.011-.121a.953.953,0,0,1,.8.262,2.131,2.131,0,0,1,.4,2.548.38.38,0,0,1-.236.134,2.865,2.865,0,0,0-1.316.629.567.567,0,0,0-.1.114.334.334,0,0,0-.024.088c.285-.074.559-.138.827-.217.994-.292,1.428.455,1.534,1.109a2.046,2.046,0,0,1,0,.523c-.033.323-.112.589-.5.7a2.822,2.822,0,0,0-.74.453,1.375,1.375,0,0,0-.207.26c.41-.089.739-.165,1.071-.231.457-.091.606-.014.818.407a1.785,1.785,0,0,1-.538,2.194q-3.873,2.76-7.748,5.516a2.652,2.652,0,0,1-1.326.473c-.365.034-.731.071-1.092.136a.5.5,0,0,0-.272.218q-1.307,1.941-2.6,3.89a.745.745,0,0,1-1.255.184q-2.42-1.964-4.842-3.924a1.487,1.487,0,0,1-.421-1.947c.248-.472.526-.929.812-1.38a.828.828,0,0,1,.955-.383c.655.163,1.31.332,1.953.536a1.781,1.781,0,0,0,2.385-1.952c-.006-.119-.026-.207.12-.282a2.231,2.231,0,0,0,1.2-2.33.324.324,0,0,1,.223-.408,2.168,2.168,0,0,0,1.232-1.768,4.635,4.635,0,0,0,0-.946c-.008-.137.007-.214.14-.271a2.58,2.58,0,0,0,1.335-2.748c-.041-.209-.01-.3.2-.387a1.893,1.893,0,0,0,.876-.863,2.007,2.007,0,0,0,.192-.351,1.826,1.826,0,0,1,.837-.917c.994-.613,1.994-1.221,2.949-1.891a1.572,1.572,0,0,1,2.481,1.2,2.529,2.529,0,0,1-.01.6c-.036.325-.124.6-.519.689a2.8,2.8,0,0,0-.659.353l.042.1" transform="translate(-41.933 -9.61)"/><path class="a" d="M147.955,150.195c.308-.048.62-.078.923-.146a5.312,5.312,0,0,0,1.9-.917c.9-.633,1.839-1.211,2.762-1.812q1.478-.964,2.955-1.929a.927.927,0,0,1,1.035-.084,1.13,1.13,0,0,1,.387.376c.74,1.229,1.469,2.465,2.2,3.7a.721.721,0,0,1-.3,1.1q-2.857,1.528-5.718,3.049a1.465,1.465,0,0,1-2.143-.63c-.326-.573-.653-1.145-.972-1.721a.332.332,0,0,0-.29-.177,10.282,10.282,0,0,1-1.27-.254c-.5-.141-.985-.332-1.477-.5l.014-.054" transform="translate(-132.947 -130.47)"/><path class="a" d="M217.223,197.235a1.445,1.445,0,0,1,.64-1.092q2.071-1.427,4.143-2.851c.357-.246.712-.5,1.073-.737a1.228,1.228,0,0,1,1.781.321c.737,1.052,1.459,2.114,2.194,3.168.091.131.092.2-.047.3q-3.488,2.391-6.967,4.795c-.194.134-.278.108-.405-.079-.707-1.042-1.436-2.07-2.137-3.116a3.379,3.379,0,0,1-.273-.709" transform="translate(-195.207 -172.817)"/><path class="a" d="M7.29,201.3,4.515,199.39c-1.45-1-2.9-2-4.352-2.991-.188-.128-.214-.209-.078-.4.711-1.009,1.405-2.03,2.107-3.046a1.249,1.249,0,0,1,1.886-.349q2.557,1.758,5.115,3.515a1.3,1.3,0,0,1,.366,1.916q-1.048,1.527-2.105,3.047c-.046.067-.1.13-.164.218" transform="translate(0.001 -172.825)"/><path class="a" d="M64.772,58.923a5.424,5.424,0,0,1,.722.254q1.623.835,3.232,1.7a1.677,1.677,0,0,1,.925,1.782,1.206,1.206,0,0,1-1.783.975c-.759-.344-1.512-.7-2.267-1.056q-.77-.36-1.539-.723a1.3,1.3,0,0,1-.857-1.578,1.784,1.784,0,0,1,1.566-1.352" transform="translate(-56.76 -52.951)"/><path class="a" d="M58.6,96.484a4.848,4.848,0,0,1-.549-.151c-1.214-.486-2.423-.983-3.636-1.472a1.252,1.252,0,0,1-.384-2.14,1.174,1.174,0,0,1,1.387-.247c1.132.529,2.251,1.087,3.365,1.652a1.484,1.484,0,0,1,.791,1.1,1.024,1.024,0,0,1-.972,1.259" transform="translate(-48.153 -82.988)"/><path class="a" d="M84.633,29.1a1.408,1.408,0,0,1-.266,1.168.953.953,0,0,1-1.1.278,14.827,14.827,0,0,1-1.425-.6c-.932-.426-1.858-.864-2.786-1.3a1.362,1.362,0,0,1-.7-2.038,1.556,1.556,0,0,1,2.35-.717c.254.173.533.309.8.462.1.058.2.117.33.193-.182.206-.353.394-.519.587-.3.351-.306.521,0,.866a3.269,3.269,0,0,0,1.988,1.011c.421.068.855.06,1.323.089" transform="translate(-70.223 -23)"/><path class="a" d="M57.92,127.561a.707.707,0,0,1-.908.746q-1.559-.406-3.1-.862a.942.942,0,0,1-.608-1.286.955.955,0,0,1,1.259-.7c.876.317,1.746.656,2.608,1.009a1.229,1.229,0,0,1,.753,1.093" transform="translate(-47.839 -112.687)"/></g></svg>