<svg id="user" xmlns="http://www.w3.org/2000/svg" width="26.854" height="30" viewBox="0 0 26.854 30">
  <g id="Group_312" data-name="Group 312" transform="translate(5.64)">
    <g id="Group_311" data-name="Group 311" transform="translate(0)">
      <path id="Path_39" data-name="Path 39" d="M118.58,0a7.789,7.789,0,1,0,7.789,7.789A7.81,7.81,0,0,0,118.58,0Z" transform="translate(-110.791)" fill="#4f62aa"/>
    </g>
  </g>
  <g id="Group_314" data-name="Group 314" transform="translate(0 16.135)">
    <g id="Group_313" data-name="Group 313">
      <path id="Path_40" data-name="Path 40" d="M50.961,253.508a7.261,7.261,0,0,0-.782-1.429,9.682,9.682,0,0,0-6.7-4.218,1.434,1.434,0,0,0-.986.238,8.3,8.3,0,0,1-9.8,0,1.276,1.276,0,0,0-.986-.238,9.612,9.612,0,0,0-6.7,4.218,8.374,8.374,0,0,0-.782,1.429.723.723,0,0,0,.034.646,13.571,13.571,0,0,0,.918,1.361,12.927,12.927,0,0,0,1.565,1.769,20.4,20.4,0,0,0,1.565,1.361,15.511,15.511,0,0,0,18.5,0,14.96,14.96,0,0,0,1.565-1.361,15.713,15.713,0,0,0,1.565-1.769,11.922,11.922,0,0,0,.918-1.361A.58.58,0,0,0,50.961,253.508Z" transform="translate(-24.165 -247.841)" fill="#4f62aa"/>
    </g>
  </g>
</svg>
