<svg xmlns="http://www.w3.org/2000/svg" width="34.401" height="24" viewBox="0 0 34.401 24">
  <path id="Fill_1" data-name="Fill 1" d="M16.98,24c-5.628,0-11.966-.216-13.439-.7A3.972,3.972,0,0,1,.9,20.747c-1.166-3.2-1.458-16.252.72-18.8A4.271,4.271,0,0,1,4.493.422C6.925.162,11.826,0,17.283,0c5.883,0,12.367.2,13.59.635a4.1,4.1,0,0,1,2.594,2.484c.584,1.51.95,5.084.934,9.107-.017,4.151-.438,7.606-1.1,9.018a3.987,3.987,0,0,1-1.86,1.87C30.27,23.726,23.334,24,16.98,24ZM12.964,6.1V17.163l.436-.227,10.248-5.289L17.832,8.626Z" fill="red"/>
</svg>
